<?xml version="1.0" encoding="UTF-8"?>
<svg id="_图层_1" data-name="图层_1" xmlns="http://www.w3.org/2000/svg" version="1.1" xmlns:xlink="http://www.w3.org/1999/xlink" viewBox="0 0 31.9 32">
  <!-- Generator: Adobe Illustrator 29.0.0, SVG Export Plug-In . SVG Version: 2.1.0 Build 186)  -->
  <defs>
    <style>
      .st0 {
        fill: #0c0c0c;
      }

      .st1, .st2 {
        fill: #fff;
      }

      .st3 {
        fill: none;
      }

      .st2, .st4, .st5, .st6 {
        display: none;
      }

      .st4 {
        fill: url(#_未命名的渐变);
      }

      .st7 {
        clip-path: url(#clippath);
      }

      .st6 {
        fill: url(#_未命名的渐变_2);
      }
    </style>
    <linearGradient id="_未命名的渐变" data-name="未命名的渐变" x1="-913.2" y1="538.7" x2="-912.6" y2="538" gradientTransform="translate(29115.5 15303.1) scale(31.9 -28.4)" gradientUnits="userSpaceOnUse">
      <stop offset="0" stop-color="#41d1ff"/>
      <stop offset="1" stop-color="#bd34fe"/>
    </linearGradient>
    <linearGradient id="_未命名的渐变_2" data-name="未命名的渐变 2" x1="-878" y1="537.4" x2="-877.9" y2="536.5" gradientTransform="translate(12851.2 14318.7) scale(14.6 -26.6)" gradientUnits="userSpaceOnUse">
      <stop offset="0" stop-color="#ffea83"/>
      <stop offset="0" stop-color="#ffdd35"/>
      <stop offset="1" stop-color="#ffa800"/>
    </linearGradient>
    <clipPath id="clippath">
      <circle class="st3" cx="15.9" cy="16" r="15.9"/>
    </clipPath>
  </defs>
  <path class="st4" d="M31.8,4.7l-15,26.8c-.3.6-1.1.6-1.4,0L.1,4.7c-.3-.6.2-1.3.9-1.2l15,2.7c0,0,.2,0,.3,0l14.7-2.7c.7-.1,1.2.6.9,1.2Z"/>
  <path class="st6" d="M23.1,0l-11.1,2.2c-.2,0-.3.2-.3.4l-.7,11.5c0,.2.2.4.4.4,0,0,0,0,.1,0l3.1-.7c.3,0,.5.2.5.5l-.9,4.5c0,.3.2.6.5.5l1.9-.6c.3,0,.6.2.5.5l-1.5,7.1c0,.4.5.7.7.3l.2-.3,9-18c.2-.3-.1-.6-.4-.6l-3.2.6c-.3,0-.6-.2-.5-.5l2.1-7.2c0-.3-.2-.6-.5-.5h0Z"/>
  <rect class="st5" x="16.9" y="-114.2" width="36.9" height="36.9"/>
  <circle class="st0" cx="15.9" cy="16" r="13.3"/>
  <circle class="st2" cx="15.9" cy="8.7" r="3.6"/>
  <g class="st5">
    <g class="st7">
      <g>
        <rect class="st1" x="5.1" y="19.9" width="21.6" height="21.6" transform="translate(26.4 -2.2) rotate(45)"/>
        <rect class="st1" x="-1.1" y="22.5" width="21.6" height="21.6" transform="translate(26.4 2.9) rotate(45)"/>
        <rect class="st1" x="11.1" y="22.5" width="21.6" height="21.6" transform="translate(30 -5.7) rotate(45)"/>
      </g>
    </g>
  </g>
</svg>